<?xml version="1.0" standalone="no"?>
<!DOCTYPE svg PUBLIC "-//W3C//DTD SVG 20010904//EN"
 "http://www.w3.org/TR/2001/REC-SVG-20010904/DTD/svg10.dtd">
<svg version="1.0" xmlns="http://www.w3.org/2000/svg"
 width="260.000000pt" height="260.000000pt" viewBox="0 0 260.000000 260.000000"
 preserveAspectRatio="xMidYMid meet">
<metadata>
Created by potrace 1.14, written by Peter Selinger 2001-2017
</metadata>
<g transform="translate(0.000000,260.000000) scale(0.100000,-0.100000)"
fill="#000000" stroke="none">
<path d="M459 2143 c0 -5 -1 -131 -2 -280 l-2 -273 847 0 847 0 1 280 0 280
-98 0 -97 0 1 -53 2 -54 -651 1 -652 1 -3 53 -3 52 -95 0 c-51 0 -94 -3 -95
-7z m1497 -321 l-1 -87 -654 0 -654 0 1 68 c0 37 1 75 1 86 1 17 25 18 654 19
l654 1 -1 -87z"/>
<path d="M1285 1414 c-6 -1 -22 -5 -37 -8 -42 -9 -85 -52 -92 -90 -22 -114
132 -188 236 -115 68 49 65 145 -6 189 -21 14 -84 28 -101 24z"/>
<path d="M387 1113 c-3 -5 -4 -133 -4 -285 l0 -278 918 0 c506 0 919 3 920 8
0 10 0 523 0 545 -1 15 -12 17 -97 17 l-96 0 4 -55 c2 -43 0 -55 -12 -56 -8
-1 -338 -2 -733 -3 l-718 -1 1 35 c4 85 10 80 -89 80 -50 0 -92 -3 -94 -7z
m1644 -280 c0 -16 1 -51 2 -80 2 -39 -2 -53 -13 -55 -8 -2 -337 -4 -730 -3
l-715 0 -1 83 -2 82 729 0 729 0 1 -27z"/>
</g>
</svg>
